<?xml version="1.0" standalone="no"?>
<!DOCTYPE svg PUBLIC "-//W3C//DTD SVG 20010904//EN"
 "http://www.w3.org/TR/2001/REC-SVG-20010904/DTD/svg10.dtd">
<svg version="1.0" xmlns="http://www.w3.org/2000/svg"
 width="164.000000pt" height="164.000000pt" viewBox="0 0 164.000000 164.000000"
 preserveAspectRatio="xMidYMid meet">
<metadata>
Created by potrace 1.11, written by Peter Selinger 2001-2013
</metadata>
<g transform="translate(0.000000,164.000000) scale(0.100000,-0.100000)"
fill="#000000" stroke="none">
<path d="M700 1633 c-305 -53 -553 -262 -651 -546 -36 -105 -43 -157 -42 -287
4 -318 194 -603 488 -732 53 -23 101 -39 170 -55 57 -13 226 -13 300 0 86 16
236 69 259 93 8 8 18 14 22 14 14 0 120 85 167 135 150 156 226 359 222 586
-3 149 -29 245 -102 379 -102 189 -294 338 -508 395 -58 16 -271 27 -325 18z"/>
</g>
</svg>
